PathFileType	4	(X/Y/Z)	E:\Qualisys_Data\Carbon_Farble_Plate\Data\Amateur_Runner\S14\T2\S14T2V22_c3d.trc
DataRate	CameraRate	NumFrames	NumMarkers	Units	OrigDataRate	OrigDataStartFrame	OrigNumFrames
200.000000	200.000000	4	39	mm	200.000000	276	316
Frame#	Time	LSHO			RSHO			LICST			RICST			LASIS			LHEEL			RASIS			LTROC			RTROC			SACR			LTH1			LSK4			LTH2			LTH3			RHM5			LSK2			LTH4			RTH1			LTOE			RTH2			RTH3			RTH4			LLEP			RLEP			LSK1			LSK3			RSK1			LHM5			RSK2			LFT1			RSK3			RSK4			LLME			RLME			RTOE			RHEEL			RFT1			RFT2			LFT2			
		X1	Y1	Z1	X2	Y2	Z2	X3	Y3	Z3	X4	Y4	Z4	X5	Y5	Z5	X6	Y6	Z6	X7	Y7	Z7	X8	Y8	Z8	X9	Y9	Z9	X10	Y10	Z10	X11	Y11	Z11	X12	Y12	Z12	X13	Y13	Z13	X14	Y14	Z14	X15	Y15	Z15	X16	Y16	Z16	X17	Y17	Z17	X18	Y18	Z18	X19	Y19	Z19	X20	Y20	Z20	X21	Y21	Z21	X22	Y22	Z22	X23	Y23	Z23	X24	Y24	Z24	X25	Y25	Z25	X26	Y26	Z26	X27	Y27	Z27	X28	Y28	Z28	X29	Y29	Z29	X30	Y30	Z30	X31	Y31	Z31	X32	Y32	Z32	X33	Y33	Z33	X34	Y34	Z34	X35	Y35	Z35	X36	Y36	Z36	X37	Y37	Z37	X38	Y38	Z38	X39	Y39	Z39	

277	1.38	2350.310302734375	1426.361572265625	-499.7054443359375	2301.62548828125	1419.445068359375	-205.2803344726562	2351.97607421875	979.784423828125	-484.3731384277344	2359.679443359375	975.4707641601562	-205.9746551513672	2395.60498046875	931.9075927734376	-461.3488464355469	1926.637084960938	230.7656402587891	-405.7348022460938	2391.9384765625	938.0731811523438	-227.2032928466797	2258.616943359375	865.4744262695312	-512.105712890625	2273.748779296875	839.0557861328125	-175.5428161621094	2219.529541015625	967.5455932617188	-355.2370910644531	2307.247802734375	632.5869140625	-522.763916015625	2076.9345703125	361.4953002929688	-485.3383483886719	2231.06982421875	638.5159912109375	-501.7198181152344	2303.98046875	534.6046752929688	-507.9778137207031	2439.511962890625	94.0317153930664	-220.3598022460938	2147.423583984375	429.1566772460938	-504.3500061035156	2229.401123046875	540.4815673828125	-489.1138916015625	2500.105224609375	699.3133544921875	-183.9914398193359	2069.276123046875	33.69320297241211	-448.5021057128906	2432.907958984375	661.5155639648438	-180.8825378417969	2552.6806640625	618.2304077148438	-213.9918365478516	2480.984619140625	574.8734741210938	-202.7907562255859	2245.0341796875	470.5702819824219	-505.1455993652344	2530.069091796875	527.449462890625	-207.3548583984375	2204.7841796875	370.0935974121094	-505.9640502929688	2130.692138671875	300.892822265625	-493.7792358398438	2510.4873046875	406.3886108398438	-215.6125793457031	2001.872314453125	60.97382736206055	-504.3479614257812	2432.031982421875	440.7588806152344	-215.2691650390625	1914.72509765625	205.9372253417969	-381.1267700195312	2463.333251953125	316.1258850097656	-236.4782257080078	2394.01416015625	353.8499450683594	-233.8818664550781	1977.47900390625	206.5088653564453	-471.9870910644531	2347.343505859375	187.4257659912109	-263.3682861328125	2524.131103515625	76.8811264038086	-273.1181335449219	2289.2548828125	178.4409484863281	-326.6579284667969	2295.90966796875	142.2560729980469	-350.9581909179688	2276.697998046875	153.4459838867188	-299.6530456542969	1899.874755859375	208.2301635742188	-434.4518432617188
278	1.385	2371.623046875	1430.1875	-497.5842590332031	2318.45556640625	1422.687744140625	-204.5820159912109	2373.916748046875	982.6996459960938	-483.3306274414062	2379.327392578125	978.5720825195312	-204.8285217285156	2417.477783203125	934.5960693359376	-460.0376586914062	1942.646240234375	239.6054534912109	-410.350341796875	2413.019775390625	941.5025024414062	-226.0309448242188	2279.541015625	868.4716796875	-511.5624389648438	2295.08349609375	842.6596069335938	-174.6352844238281	2240.510498046875	970.1442260742188	-355.0305480957031	2324.641357421875	635.6681518554688	-523.3793334960938	2090.353271484375	367.1490173339844	-487.5845947265625	2248.4130859375	642.5546875	-502.0851745605469	2322.631103515625	537.6415405273438	-508.7669982910156	2484.449951171875	90.0583724975586	-221.480224609375	2160.979248046875	434.5629577636719	-506.0392456054688	2245.290771484375	544.4368286132812	-490.1031188964844	2521.614013671875	702.4115600585938	-183.4007415771484	2073.068603515625	32.36517333984375	-449.1404113769531	2454.184814453125	664.5636596679688	-181.0535278320312	2573.829833984375	621.5255737304688	-214.0112762451172	2502.519287109375	577.885009765625	-203.4562530517578	2259.351806640625	475.152587890625	-506.0898132324219	2553.790771484375	530.3374633789062	-208.3613891601562	2217.746337890625	375.018310546875	-508.5279846191406	2143.35791015625	306.1689453125	-496.3676147460938	2538.0537109375	407.9689025878906	-215.4192199707031	2007.728881835938	63.71241760253906	-505.1852111816406	2457.82421875	437.7596435546875	-215.5023956298828	1928.3134765625	216.10693359375	-385.1015014648438	2496.0947265625	315.1264953613281	-236.4530334472656	2424.66259765625	349.069091796875	-233.9374542236328	1989.534301757812	212.3587646484375	-475.5500793457031	2386.572998046875	180.1709136962891	-262.78564453125	2569.4208984375	78.479736328125	-273.3946228027344	2329.737548828125	167.8295440673828	-326.6333618164062	2338.6025390625	132.8985290527344	-351.677734375	2318.549560546875	142.6228790283203	-300.7841186523438	1913.291748046875	218.3253173828125	-438.751708984375
279	1.39	2392.70263671875	1433.170288085938	-495.6012878417969	2338.023193359375	1425.218139648438	-204.2069702148438	2395.293212890625	984.792236328125	-482.5587768554688	2401.148681640625	983.293701171875	-204.2358856201172	2438.9599609375	937.165283203125	-458.7383422851562	1957.97705078125	248.8877563476562	-415.6608276367188	2434.0146484375	945.1326904296876	-224.8708801269531	2300.713623046875	872.032958984375	-511.0821228027344	2316.314453125	846.2698364257812	-173.8276062011719	2261.763671875	972.6676025390624	-354.6053161621094	2341.27392578125	638.3246459960938	-522.8589477539062	2103.376220703125	372.6162414550781	-489.5802612304688	2266.0908203125	646.3267211914062	-502.4049987792969	2338.296875	539.2603149414062	-509.4987487792969	2529.213134765625	87.0316162109375	-221.8854217529297	2174.88525390625	439.338623046875	-507.4134521484375	2261.113037109375	548.416748046875	-491.2348327636719	2542.5146484375	704.9060668945312	-183.6228942871094	2076.815185546875	30.87821197509766	-449.8525390625	2475.15283203125	667.0287475585938	-181.4687805175781	2594.884765625	624.1242065429688	-214.0737457275391	2523.572998046875	580.69775390625	-203.7301940917969	2273.98388671875	479.5859375	-507.291015625	2574.921142578125	532.0991821289062	-209.4804229736328	2231.29296875	380.2626342773438	-509.8876953125	2156.28173828125	311.2078857421875	-499.1482849121094	2564.89892578125	409.2856140136719	-215.3105926513672	2013.739990234375	66.68067169189453	-506.357177734375	2483.216552734375	434.6181640625	-215.6318054199219	1942.229736328125	225.6031646728516	-388.8525390625	2527.859130859375	314.7085571289062	-236.2087097167969	2454.9072265625	343.7769775390625	-233.2031097412109	2002.787719726562	216.6657867431641	-478.5643005371094	2427.049560546875	172.3255920410156	-263.5008850097656	2615.0126953125	81.05452728271484	-273.6084289550781	2370.755126953125	157.7426910400391	-327.3199462890625	2381.694580078125	122.9206466674805	-352.4044799804688	2360.909423828125	131.8507080078125	-301.3239440917969	1927.789916992188	228.1025238037109	-443.303466796875
280	1.395	2414.043701171875	1436.3486328125	-493.553955078125	2356.857177734375	1427.678955078125	-203.4023590087891	2417.455322265625	987.67138671875	-481.5987243652344	2421.647216796875	986.0752563476562	-203.502197265625	2459.819580078125	939.556884765625	-457.5731506347656	1973.827392578125	256.4488525390625	-419.8587036132812	2454.8095703125	948.3143920898438	-223.9523010253906	2321.40771484375	875.4090576171875	-510.6574096679688	2337.720703125	849.3829345703125	-173.496337890625	2283.135986328125	975.1756591796876	-354.63671875	2359.78125	641.0109252929688	-523.7251586914062	2117.34228515625	377.3583068847656	-491.8003540039062	2283.374755859375	649.9383544921875	-502.2702331542969	2354.40625	542.7304077148438	-510.0234069824219	2573.495361328125	85.21056365966797	-222.3944549560547	2188.9931640625	444.3540649414062	-508.1107788085938	2277.38330078125	552.02978515625	-491.8031311035156	2563.348388671875	707.10986328125	-183.0512390136719	2080.88037109375	29.74806976318359	-450.1944885253906	2496.039794921875	669.4435424804688	-182.0411071777344	2615.893310546875	626.2518920898438	-213.9958038330078	2544.773193359375	583.5564575195312	-204.0181427001953	2288.7626953125	483.3266296386719	-508.0337219238281	2596.17431640625	533.9562377929688	-209.4729156494141	2244.947021484375	384.730224609375	-511.9774475097656	2170.04443359375	316.0880432128906	-501.4836120605469	2591.0390625	409.8492736816406	-215.1427764892578	2020.380493164062	69.91838836669922	-507.2182922363281	2508.472900390625	430.7516784667969	-215.2530364990234	1956.788208007812	234.6887359619141	-393.1501159667969	2559.511474609375	313.3411560058594	-235.5797119140625	2485.642822265625	339.3755493164062	-233.7064971923828	2016.585327148438	222.0927276611328	-482.594970703125	2467.02294921875	164.9612579345703	-264.3424072265625	2659.285400390625	84.02471160888672	-272.9459228515625	2411.06884765625	148.2597961425781	-327.2777404785156	2424.873046875	114.0079574584961	-353.5060119628906	2403.31640625	121.3815841674805	-302.1917114257812	1942.922729492188	237.5101318359375	-447.6504516601562
